<svg width="446" height="212" viewBox="0 0 446 212" fill="none" xmlns="http://www.w3.org/2000/svg">
<path d="M171.489 140.333V148.894C171.489 158.978 168.873 166.92 163.642 172.723C158.505 178.526 151.133 181.427 141.525 181.427C132.013 181.427 124.641 178.526 119.409 172.723C114.177 166.92 111.561 158.978 111.561 148.894V140.333C111.561 130.44 114.13 122.593 119.266 116.79C124.498 110.892 131.918 107.943 141.525 107.943C151.133 107.943 158.505 110.892 163.642 116.79C168.873 122.593 171.489 130.44 171.489 140.333ZM159.361 140.333C159.361 133.579 157.839 128.3 154.795 124.495C151.751 120.595 147.328 118.645 141.525 118.645C135.818 118.645 131.395 120.595 128.255 124.495C125.211 128.3 123.689 133.579 123.689 140.333V148.894C123.689 155.934 125.211 161.356 128.255 165.161C131.395 168.966 135.818 170.868 141.525 170.868C147.328 170.868 151.751 168.966 154.795 165.161C157.839 161.356 159.361 155.934 159.361 148.894V140.333ZM231.562 177.432C226.236 180.095 220.576 181.427 214.583 181.427C209.446 181.427 205.403 180.38 202.454 178.288C199.601 176.195 197.556 173.389 196.319 169.869C195.177 166.35 194.607 162.45 194.607 158.169V119.644H182.336V109.37H194.607V89.6797H206.307V109.37H229.422V119.644H206.307V157.741C206.307 162.687 207.116 166.112 208.733 168.014C210.445 169.822 213.061 170.725 216.58 170.725C218.293 170.725 220.052 170.535 221.86 170.155C223.762 169.679 225.807 168.918 227.995 167.872L231.562 177.432ZM298.608 180.713C294.233 180.713 290.713 179.715 288.049 177.717C285.481 175.719 283.674 173.246 282.627 170.297C277.966 174.388 273.733 177.289 269.928 179.001C266.123 180.618 262.318 181.427 258.513 181.427C252.33 181.427 247.764 179.429 244.816 175.434C241.867 171.439 240.392 166.54 240.392 160.737C240.392 156.837 241.106 153.365 242.533 150.321C243.959 147.277 246.385 144.899 249.81 143.187C253.234 141.38 257.848 140.476 263.65 140.476C266.218 140.476 269.025 140.666 272.069 141.047C275.113 141.332 278.204 141.713 281.343 142.188V132.628C281.343 127.301 280.154 123.687 277.776 121.784C275.493 119.786 272.116 118.788 267.645 118.788C261.557 118.788 254.756 120.452 247.241 123.782L243.531 114.079C247.907 112.081 252.093 110.559 256.088 109.513C260.083 108.467 264.126 107.943 268.216 107.943C274.875 107.943 279.964 109.037 283.483 111.225C287.003 113.413 289.429 116.314 290.76 119.929C292.092 123.544 292.758 127.491 292.758 131.772V162.307C292.758 164.495 293.186 166.35 294.042 167.872C294.898 169.299 296.611 170.012 299.179 170.012H300.749V180.713H298.608ZM251.95 160.595C251.95 163.829 252.711 166.445 254.233 168.442C255.755 170.44 257.943 171.439 260.796 171.439C263.27 171.439 266.123 170.725 269.358 169.299C272.592 167.777 276.587 164.78 281.343 160.309V151.32C274.875 150.274 269.167 149.751 264.221 149.751C259.845 149.751 256.706 150.654 254.804 152.462C252.901 154.269 251.95 156.98 251.95 160.595Z" fill="white"/>
<path d="M306.194 96.814L330.879 82.9734H345.147V180H328.31V101.808L313.756 109.798L306.194 96.814ZM436.317 121.213V141.617C436.317 153.984 433.416 163.734 427.613 170.868C421.811 177.907 413.297 181.427 402.072 181.427C390.848 181.427 382.334 177.907 376.532 170.868C370.729 163.734 367.828 153.984 367.828 141.617V121.213C367.828 108.847 370.729 99.1445 376.532 92.1053C382.334 85.0661 390.848 81.5465 402.072 81.5465C413.297 81.5465 421.811 85.0661 427.613 92.1053C433.416 99.1445 436.317 108.847 436.317 121.213ZM419.052 121.213C419.052 105.328 413.392 97.3847 402.072 97.3847C396.27 97.3847 391.989 99.3823 389.231 103.378C386.472 107.373 385.093 113.318 385.093 121.213V141.617C385.093 149.513 386.472 155.506 389.231 159.596C391.989 163.591 396.27 165.589 402.072 165.589C413.392 165.589 419.052 157.598 419.052 141.617V121.213Z" fill="#B3FF3B"/>
<path d="M6 178.347L29.8207 123.427C30.8852 120.973 34.3966 121.064 35.3326 123.57L53.2732 171.605C54.2009 174.088 57.6697 174.207 58.765 171.793L124.905 26M124.905 26L98.8946 34.1747M124.905 26L129.736 37.8905L134.566 49.781" stroke="white" stroke-width="11.8905"/>
</svg>
